<svg width="627" height="594" viewBox="0 0 627 594" fill="none" xmlns="http://www.w3.org/2000/svg">
<path d="M47.9525 136.656C47.9525 136.656 169.245 232.082 245.676 67.7837C318.784 -45.0678 545.278 3.0237 599.585 67.7837C669.934 151.675 492.467 266.593 583.473 284.824C674.478 303.054 615.05 505.746 476.909 486.345C305.067 462.21 354.585 535.652 302.999 578.105C261.024 604.827 217.417 592.954 185.03 578.105C159.086 566.209 131.618 535.538 129.368 486.345C125.111 393.273 91.5964 361.295 63.7372 350.742C23.5577 335.521 -48.3683 153.843 47.9525 136.656Z" fill="#69DADB"/>
<g clip-path="url(#clip0_782_10634)">
<path d="M308.237 532.447C307.624 532.447 307.035 532.209 306.595 531.782C306.154 531.355 305.897 530.774 305.877 530.161L316.384 382.971H330.993L310.597 530.161C310.577 530.774 310.32 531.355 309.879 531.782C309.439 532.209 308.85 532.447 308.237 532.447Z" fill="white" stroke="#3F4D79" stroke-width="5" stroke-miterlimit="10" stroke-linecap="round"/>
<path d="M399.015 532.447C398.402 532.447 397.813 532.209 397.373 531.782C396.932 531.355 396.675 530.774 396.655 530.161L376.259 382.971H390.868L401.375 530.161C401.355 530.774 401.097 531.355 400.657 531.782C400.217 532.209 399.628 532.447 399.015 532.447Z" fill="white" stroke="#3F4D79" stroke-width="5" stroke-miterlimit="10" stroke-linecap="round"/>
<path d="M441.12 532.447C440.507 532.447 439.918 532.209 439.478 531.782C439.037 531.355 438.78 530.774 438.76 530.161L418.364 382.971H432.973L443.48 530.161C443.46 530.774 443.203 531.355 442.762 531.782C442.322 532.209 441.733 532.447 441.12 532.447Z" fill="white" stroke="#3F4D79" stroke-width="5" stroke-miterlimit="10" stroke-linecap="round"/>
<path d="M446.52 351.41L442.302 368.353H428.434L432.653 351.41H446.52Z" fill="white" stroke="#3F4D79" stroke-width="5" stroke-miterlimit="10" stroke-linecap="round"/>
<path d="M392.39 351.41L388.172 368.353H374.304L378.522 351.41H392.39Z" fill="white" stroke="#3F4D79" stroke-width="5" stroke-miterlimit="10" stroke-linecap="round"/>
<path d="M444.179 367.188H299.225C294.446 367.188 290.572 371.067 290.572 375.851C290.572 380.635 294.446 384.514 299.225 384.514H444.179C448.958 384.514 452.832 380.635 452.832 375.851C452.832 371.067 448.958 367.188 444.179 367.188Z" fill="#FFB000"/>
<path d="M503.815 232.365L477.528 337.965C476.489 342.134 474.088 345.836 470.707 348.481C467.325 351.126 463.157 352.563 458.866 352.563H363.067C357.763 352.563 354.074 344.537 355.901 336.967L382.088 228.528C383.331 223.375 386.557 219.956 390.169 219.956H494.25C498.476 219.956 505.255 226.358 503.815 232.365Z" fill="#FFB000"/>
<path d="M201.483 506.968C201.483 509.644 209.753 517.841 206.968 531.542C206.968 531.542 186.564 531.573 176.555 531.635C164.658 531.708 139.352 531.708 139.352 531.708C139.352 531.708 136.895 520.788 149.929 519.276C162.962 517.763 179.483 503.97 179.483 503.97L201.483 506.968Z" fill="#E2631E"/>
<path d="M207.845 532.795C195.947 532.868 139.352 532.868 139.352 532.868" stroke="#3F4D79" stroke-width="7" stroke-miterlimit="10" stroke-linecap="round"/>
<path d="M179.87 503.97C181.16 500.368 183.018 488.605 183.018 488.605L203.982 490.447C203.982 490.447 200.505 498.311 201.096 506.581C201.297 509.37 178.452 507.919 179.87 503.97Z" fill="#FFC0B7"/>
<path d="M391.436 357.194C368.127 366.732 258.858 360.71 258.858 360.71C258.858 360.71 256.621 446.431 215.532 490.806C215.532 490.806 187.19 489.855 179.422 487.847C179.422 487.847 200.899 359.557 216.254 334.356C224.366 321.015 315.7 300.657 335.393 298.943C341.258 302.856 347.484 306.198 353.985 308.923C371.886 316.485 390.246 319.193 404.052 319.994C406.173 332.387 406.509 351.028 391.436 357.194Z" fill="#3C4564"/>
<path d="M217.32 506.968C217.32 509.644 225.591 517.841 222.806 531.542C222.806 531.542 202.402 531.573 192.393 531.635C180.496 531.708 155.19 531.708 155.19 531.708C155.19 531.708 152.733 520.788 165.766 519.276C178.8 517.763 195.321 503.97 195.321 503.97L217.32 506.968Z" fill="#FE7523"/>
<path d="M223.683 532.795C211.785 532.868 155.19 532.868 155.19 532.868" stroke="#3F4D79" stroke-width="7" stroke-miterlimit="10" stroke-linecap="round"/>
<path d="M195.708 503.97C196.998 500.368 198.856 488.605 198.856 488.605L222.91 491.22C222.91 491.22 218.545 495.228 216.934 506.581C216.54 509.346 194.29 507.919 195.708 503.97Z" fill="#FFCFC9"/>
<path d="M408.305 367.277C384.996 376.828 275.727 370.794 275.727 370.794C275.727 370.794 277.983 445.448 226.367 491.355C226.367 491.355 200.54 489.495 192.76 487.487C192.76 487.487 225.842 366.276 233.112 344.44C237.091 332.487 338.568 309.441 353.974 308.923C379.387 319.661 405.698 320.585 418.654 320.237C420.968 328.089 428.589 358.98 408.305 367.277Z" fill="#3F4D79"/>
<path d="M341.67 266.586C315.233 271.866 251.719 269.603 225.092 264.246C223.648 265.364 222.131 266.384 220.55 267.298C217.073 269.298 210.379 270.915 208.791 270.826C207.203 270.737 197.461 269.24 197.461 269.24C197.461 269.24 197.114 268.137 198.539 266.683C199.964 265.229 210.414 266.385 206.593 263.202C204.893 261.778 196.43 264.981 192.749 268.532C189.067 272.083 187.341 269.271 187.341 269.271C187.341 269.271 190.864 262.695 192.127 261.504C193.39 260.312 201.784 255.26 207.47 254.491C211.588 253.934 221.492 254.699 226.734 255.964C246.161 251.346 283.434 245.459 309.972 245.671C313.498 230.972 317.782 212.978 318.922 207.655L337.788 220.033L341.67 266.586Z" fill="#FFC0B7"/>
<path d="M318.922 207.655L317.732 212.935C317.732 212.935 322.619 225.333 338.391 229.425L337.788 220.026L318.922 207.655Z" fill="#FAB6AD"/>
<path d="M433.827 240.693C433.827 240.693 432.417 240.604 430.041 240.36C427.337 260.354 424.958 277.15 424.958 280.836C424.958 290.742 426.889 319.753 426.889 319.753C426.889 319.753 374.794 325.606 335.061 298.715C335.061 298.715 344.27 286.302 339.492 247.187C336.316 221.166 337.788 220.025 337.788 220.025C337.788 220.025 328.054 214.943 314.248 203.992C314.248 203.992 321.413 168.521 332.844 161.562C344.274 154.604 362.012 151.358 373.79 146.918C385.568 142.477 403.472 137.866 403.472 137.866C408.251 141.792 430.938 152.898 436.566 159.559C444.585 166.92 455.579 196.113 433.827 240.693Z" fill="#CEEFF7"/>
<path d="M388.025 229.027C388.025 229.027 392.896 221.016 398.771 191.812" stroke="#84D7EC" stroke-width="5" stroke-miterlimit="10"/>
<path d="M337.355 219.286C336.799 212.223 337.549 199.006 338.46 191.66" stroke="#84D7EC" stroke-width="5" stroke-miterlimit="10"/>
<path d="M430.034 240.361C430.034 240.361 409.386 292.612 400.038 293.478C369.591 296.298 318.709 267.264 307.716 266.924L302.895 266.769C300.191 268.359 296.753 269.712 293.844 268.858C287.98 267.14 283.283 262.897 279.397 264.719C275.511 266.541 271.026 270.037 268.561 269.747C263.404 269.125 260.43 266.382 260.43 266.382C260.43 266.382 263.64 262.877 266.881 259.547C264.583 260.448 261.087 262.924 259.298 263.775C256.594 265.055 255.204 262.765 255.204 262.765C255.204 262.765 261.234 257.431 263.316 256.166C265.328 254.948 270.976 253.667 273.827 253.606C277.276 253.141 296.196 250.554 305.946 251.583C317.126 251.169 339.553 251.969 379.063 259.408L390.385 230.327C390.385 230.327 407.579 237.982 430.034 240.361Z" fill="#FFCFC9"/>
<path d="M430.034 240.364C430.034 240.364 428.168 245.087 425.302 251.717C415.911 248.94 400.687 243.041 389.763 231.92L390.385 230.318C390.385 230.318 407.583 237.981 430.034 240.364Z" fill="#FAB6AD"/>
<path d="M382.822 103.019C382.822 103.019 384.367 125.067 403.461 137.867C403.461 137.867 393.398 159.915 370.198 161.439C346.997 162.963 364.492 149.916 364.492 149.916C364.492 149.916 358.439 129.859 357.411 125.078L382.822 103.019Z" fill="#FFCFC9"/>
<path d="M382.752 114.468C381.593 124.553 372.708 139.008 361.688 140.489C359.957 134.59 357.964 127.639 357.415 125.079L381.539 104.125L382.288 105.618C382.288 105.618 382.999 112.341 382.752 114.468Z" fill="#FAB6AD"/>
<path d="M381.006 104.597C381.006 104.597 381.365 111.509 380.438 113.439C376.17 122.336 362.785 132.548 352.378 132.548C344.324 132.548 334.887 107.974 334.037 98.9183C333.187 89.863 334.377 75.5161 356.21 73.8102C378.043 72.1044 379.581 94.818 379.581 94.818L381.006 104.597Z" fill="#FFCFC9"/>
<path d="M317.319 89.6967C317.319 89.6967 313.259 81.62 320.046 75.6902C328.054 68.685 335.393 71.9303 339.495 67.4897C343.598 63.0491 352.17 53.5645 364.913 55.1852C376.34 56.6396 379.673 64.5848 379.673 64.5848C379.673 64.5848 386.742 61.6024 392.88 69.6133C399.019 77.6242 384.193 111.002 384.193 111.002C384.193 111.002 380.202 97.7037 379.581 94.8413C378.186 88.4318 365.593 89.9442 366.617 77.4153C366.617 77.4153 363.206 85.9562 350.242 85.7937C346.379 85.7473 341.388 84.6874 336.432 83.9525C333.69 88.8147 333.616 94.5125 334.037 98.9376C334.037 98.9183 322.445 98.7403 317.319 89.6967Z" fill="#FE7523"/>
<path d="M379.322 64.5848C379.322 64.5848 385.047 59.1346 391.123 64.345" stroke="#FE7523" stroke-width="3" stroke-miterlimit="10"/>
<path d="M366.617 76.6924C366.617 76.6924 364.241 88.1923 351.297 88.9427" stroke="#FE7523" stroke-width="3" stroke-miterlimit="10"/>
<path d="M383.011 91.1817L378.893 60.0472C378.757 59.0108 378.23 58.0658 377.421 57.4057C376.611 56.7455 375.581 56.4202 374.539 56.4962" stroke="#3F4D79" stroke-width="5" stroke-miterlimit="10" stroke-linecap="round"/>
<path d="M386.437 113.764C387.542 119.21 397.16 134.106 380.438 162.533C363.716 190.96 385.46 199.427 374.462 218.899C363.465 238.372 339.623 237.304 340.855 269.889C341.666 291.33 322.468 294.231 323.577 269.889" stroke="#3F4D79" stroke-width="5" stroke-miterlimit="10" stroke-linecap="round"/>
<path d="M351.397 240.697C357.137 236.005 362.943 209.435 353.734 194.318C344.525 179.201 335.524 158.824 349.098 133.155" stroke="#3F4D79" stroke-width="5" stroke-miterlimit="10" stroke-linecap="round"/>
<path d="M386.696 90.6381L378.576 91.8664C376.106 92.2401 374.406 94.5482 374.779 97.0217L376.834 110.649C377.208 113.123 379.513 114.825 381.983 114.452L390.103 113.223C392.573 112.85 394.273 110.541 393.9 108.068L391.844 94.4403C391.471 91.9668 389.166 90.2645 386.696 90.6381Z" fill="white" stroke="#ECBE02" stroke-width="6" stroke-miterlimit="10"/>
<path d="M146.073 277.668H353.935C356.144 277.668 357.937 280.236 357.937 283.408V283.934C357.937 287.102 356.144 289.671 353.935 289.671H197.45" fill="white"/>
<path d="M148.391 276.895H353.935C356.144 276.895 357.937 279.463 357.937 282.635V283.161C357.937 286.329 356.144 288.897 353.935 288.897H198.222" stroke="#3CBFD4" stroke-width="5" stroke-miterlimit="10" stroke-linecap="round"/>
<path d="M344.166 534.999L304.784 289.284H318.342L357.338 534.613L344.166 534.999Z" fill="white"/>
<path d="M320.633 301.763L306.008 296.297L304.78 289.284H318.346L320.633 301.763Z" fill="#CEEFF7"/>
<path d="M343.393 533.452L304.784 289.284H318.342L356.565 533.065" stroke="#3CBFD4" stroke-width="7" stroke-miterlimit="10" stroke-linecap="round"/>
<path d="M294.485 266.78H177.506C175.956 266.781 174.443 266.305 173.171 265.416C171.9 264.528 170.932 263.27 170.398 261.813L143.439 188.245C143.102 187.333 142.99 186.352 143.113 185.387C143.237 184.423 143.591 183.502 144.147 182.704C144.702 181.906 145.442 181.254 146.304 180.805C147.165 180.355 148.123 180.121 149.094 180.122H267.619C269.368 180.124 271.075 180.664 272.507 181.669C273.939 182.674 275.029 184.096 275.627 185.742L301.593 256.591C302.012 257.737 302.149 258.966 301.991 260.176C301.834 261.386 301.388 262.54 300.69 263.54C299.993 264.54 299.064 265.357 297.984 265.921C296.904 266.485 295.703 266.779 294.485 266.78Z" fill="white" stroke="#FFB000" stroke-width="5" stroke-miterlimit="10"/>
<path d="M289.395 266.78H176.347C174.83 266.764 173.355 266.278 172.125 265.389C170.896 264.499 169.971 263.25 169.479 261.813L143.428 188.245C142.033 184.311 144.846 180.122 148.894 180.122H263.432C265.14 180.141 266.8 180.69 268.184 181.693C269.568 182.696 270.607 184.104 271.158 185.723L296.267 256.576C298.013 261.558 294.478 266.78 289.395 266.78Z" fill="white" stroke="#FFB000" stroke-width="5" stroke-miterlimit="10"/>
<path d="M344.409 266.779H176.107C173.959 266.779 172.217 268.523 172.217 270.675V270.876C172.217 273.027 173.959 274.771 176.107 274.771H344.409C346.557 274.771 348.299 273.027 348.299 270.876V270.675C348.299 268.523 346.557 266.779 344.409 266.779Z" fill="white" stroke="#FFB000" stroke-width="5" stroke-miterlimit="10"/>
</g>
<defs>
<clipPath id="clip0_782_10634">
<rect width="366" height="480" fill="white" transform="translate(138 55)"/>
</clipPath>
</defs>
</svg>
